<!DOCTYPE svg PUBLIC "-//W3C//DTD SVG 1.1//EN" "http://www.w3.org/Graphics/SVG/1.1/DTD/svg11.dtd">
<!-- Uploaded to: SVG Repo, www.svgrepo.com, Transformed by: SVG Repo Mixer Tools -->
<svg width="800px" height="800px" viewBox="-4.8 -4.8 57.60 57.60" xmlns="http://www.w3.org/2000/svg" fill="#000000">
<g id="SVGRepo_bgCarrier" stroke-width="0" transform="translate(8.879999999999999,8.879999999999999), scale(0.63)">
<rect x="-4.8" y="-4.8" width="57.60" height="57.60" rx="28.8" fill="#ffffff" strokewidth="0"/>
</g>
<g id="SVGRepo_tracerCarrier" stroke-linecap="round" stroke-linejoin="round"/>
<g id="SVGRepo_iconCarrier"> <title>close-circle-solid</title> <g id="Layer_2" data-name="Layer 2"> <g id="invisible_box" data-name="invisible box"> <rect width="48" height="48" fill="none"/> </g> <g id="icons_Q2" data-name="icons Q2"> <path d="M24,2A22,22,0,1,0,46,24,21.9,21.9,0,0,0,24,2Zm8.3,27.5a2.1,2.1,0,0,1,.4,2.7,2,2,0,0,1-3.1.2L24,26.8l-5.6,5.6a2,2,0,0,1-3.1-.2,2.1,2.1,0,0,1,.4-2.7L21.2,24l-5.5-5.5a2.2,2.2,0,0,1-.4-2.7,2,2,0,0,1,3.1-.2L24,21.2l5.6-5.6a2,2,0,0,1,3.1.2,2.2,2.2,0,0,1-.4,2.7L26.8,24Z"/> </g> </g> </g>
</svg>