<?xml version="1.0" encoding="UTF-8" standalone="no"?>
<!DOCTYPE svg PUBLIC "-//W3C//DTD SVG 1.1//EN" "http://www.w3.org/Graphics/SVG/1.1/DTD/svg11.dtd">
<svg xmlns="http://www.w3.org/2000/svg" version="1.1" viewBox="0.00 0.00 168.00 92.00">
<path stroke="#858180" stroke-width="2.00" fill="none" stroke-linecap="butt" vector-effect="non-scaling-stroke" d="
  M 27.59 48.97
  Q 31.65 40.78 30.60 31.49
  Q 30.54 30.92 30.93 30.51
  L 35.29 25.97
  Q 35.54 25.70 35.18 25.63
  Q 34.77 25.56 34.46 25.87
  C 32.90 27.45 31.38 28.51 30.06 30.42
  Q 29.77 30.82 29.33 30.62
  C 25.44 28.82 24.71 25.36 23.54 20.81
  Q 23.41 20.32 23.57 19.85
  Q 24.39 17.41 24.25 14.84
  A 0.35 0.35 0.0 0 0 23.57 14.75
  Q 21.66 20.64 24.31 26.27
  A 0.86 0.86 0.0 0 1 23.37 27.48
  C 18.77 26.58 15.71 25.65 13.02 21.53
  A 0.12 0.12 0.0 0 0 12.81 21.56
  L 12.66 22.02
  A 0.73 0.68 -53.6 0 0 12.73 22.61
  C 15.67 27.16 19.71 27.98 24.91 28.09
  A 0.90 0.89 -23.4 0 1 25.47 28.31
  L 28.99 31.54
  Q 29.38 31.91 29.40 32.45
  Q 29.65 41.84 25.26 49.99
  Q 24.94 50.57 25.41 51.03
  L 27.30 52.92
  Q 27.72 53.35 28.12 52.90
  L 36.22 43.86
  Q 36.63 43.40 37.23 43.35
  Q 42.70 42.87 48.00 44.13
  C 50.96 44.84 53.58 44.92 56.46 45.31
  C 58.22 45.54 63.34 48.54 64.54 49.52
  C 68.80 52.98 68.67 56.63 71.82 60.46
  Q 76.36 65.97 79.41 72.46
  C 81.32 76.53 81.09 79.54 78.82 83.21
  A 0.31 0.31 0.0 0 0 79.28 83.61
  C 80.89 82.21 81.57 77.57 81.54 75.73
  Q 81.53 75.19 82.04 75.37
  C 82.97 75.69 87.05 78.00 87.46 77.99
  Q 87.62 77.98 87.73 77.91
  Q 88.13 77.65 87.72 77.41
  C 84.83 75.71 81.30 75.01 79.78 71.70
  Q 77.35 66.40 74.89 62.93
  Q 73.05 60.34 76.19 59.83
  Q 81.05 59.04 85.21 57.59
  Q 85.49 57.49 85.65 57.32
  Q 85.85 57.10 85.92 56.87
  Q 86.11 56.27 85.55 56.55
  C 81.37 58.60 77.27 57.83 73.54 60.51
  Q 73.09 60.84 72.79 60.37
  C 68.36 53.32 67.91 49.29 59.55 45.49
  A 0.44 0.44 0.0 0 1 59.68 44.65
  Q 65.57 43.88 70.05 40.01
  Q 70.46 39.65 70.94 39.89
  C 76.58 42.72 84.00 44.44 90.09 42.13
  Q 96.80 39.58 103.71 37.72
  C 106.97 36.85 111.21 36.86 114.94 35.68
  Q 115.40 35.53 115.87 35.69
  C 120.43 37.24 125.39 41.39 129.53 42.07
  Q 134.76 42.92 129.65 41.53
  C 125.37 40.36 120.87 37.02 116.53 35.02
  A 0.45 0.45 0.0 0 1 116.39 34.30
  C 119.43 31.17 121.94 27.73 125.31 25.05
  C 130.09 21.24 134.90 16.89 140.26 14.67
  Q 148.94 11.08 158.54 11.78
  Q 158.66 11.79 158.69 11.67
  Q 158.73 11.55 158.77 11.43
  Q 158.82 11.28 158.66 11.26
  Q 145.50 10.07 135.96 15.97
  Q 127.04 21.49 116.84 32.41
  C 114.65 34.76 112.66 35.86 109.61 35.76
  C 100.78 35.45 92.34 42.82 83.34 42.58
  Q 77.01 42.41 71.53 38.77
  A 0.69 0.69 0.0 0 1 71.40 37.74
  C 75.04 33.71 79.59 34.33 81.80 28.65
  Q 81.97 28.22 82.37 28.00
  Q 86.15 25.97 90.48 26.24
  A 0.79 0.77 -55.1 0 0 90.90 26.16
  L 95.76 23.75
  A 0.93 0.93 0.0 0 1 96.70 23.82
  Q 97.59 24.43 98.66 24.61
  Q 98.75 24.63 98.81 24.57
  Q 98.92 24.46 99.05 24.33
  Q 99.18 24.20 99.01 24.13
  L 96.97 23.21
  A 0.30 0.29 -63.0 0 1 96.84 22.79
  Q 99.13 19.05 102.95 17.17
  Q 103.50 16.90 102.88 16.93
  C 100.32 17.07 98.10 20.37 96.62 22.37
  Q 96.30 22.80 95.79 22.95
  Q 93.46 23.63 91.56 25.15
  Q 91.18 25.45 90.71 25.41
  Q 85.79 24.93 81.77 27.56
  Q 81.08 28.02 81.19 27.20
  L 81.49 25.00
  Q 81.68 23.59 80.88 24.49
  Q 80.80 24.59 80.71 25.99
  C 80.55 28.69 81.35 30.13 78.70 31.91
  C 75.49 34.06 73.19 35.39 70.46 38.12
  C 61.20 47.39 50.62 43.33 39.09 41.38
  A 0.79 0.79 0.0 0 1 38.76 39.97
  C 42.09 37.49 46.28 33.51 50.39 32.83
  C 58.64 31.47 64.75 31.97 68.82 23.17
  A 0.07 0.07 0.0 0 0 68.71 23.10
  C 64.69 27.72 63.37 30.77 56.66 31.24
  C 53.22 31.48 50.98 31.87 48.02 32.29
  Q 46.92 32.44 47.59 31.56
  L 55.19 21.53
  A 0.16 0.16 0.0 0 0 55.11 21.28
  Q 54.89 21.20 54.77 21.40
  Q 54.72 21.50 54.67 21.55
  Q 50.86 25.61 47.98 30.36
  C 45.26 34.84 39.89 36.77 36.29 40.81
  Q 32.33 45.23 27.98 49.27
  A 0.25 0.25 0.0 0 1 27.59 48.97"
/>
<path fill="#ffffff" d="
  M 0.00 0.00
  L 168.00 0.00
  L 168.00 92.00
  L 0.00 92.00
  L 0.00 0.00
  Z
  M 27.59 48.97
  Q 31.65 40.78 30.60 31.49
  Q 30.54 30.92 30.93 30.51
  L 35.29 25.97
  Q 35.54 25.70 35.18 25.63
  Q 34.77 25.56 34.46 25.87
  C 32.90 27.45 31.38 28.51 30.06 30.42
  Q 29.77 30.82 29.33 30.62
  C 25.44 28.82 24.71 25.36 23.54 20.81
  Q 23.41 20.32 23.57 19.85
  Q 24.39 17.41 24.25 14.84
  A 0.35 0.35 0.0 0 0 23.57 14.75
  Q 21.66 20.64 24.31 26.27
  A 0.86 0.86 0.0 0 1 23.37 27.48
  C 18.77 26.58 15.71 25.65 13.02 21.53
  A 0.12 0.12 0.0 0 0 12.81 21.56
  L 12.66 22.02
  A 0.73 0.68 -53.6 0 0 12.73 22.61
  C 15.67 27.16 19.71 27.98 24.91 28.09
  A 0.90 0.89 -23.4 0 1 25.47 28.31
  L 28.99 31.54
  Q 29.38 31.91 29.40 32.45
  Q 29.65 41.84 25.26 49.99
  Q 24.94 50.57 25.41 51.03
  L 27.30 52.92
  Q 27.72 53.35 28.12 52.90
  L 36.22 43.86
  Q 36.63 43.40 37.23 43.35
  Q 42.70 42.87 48.00 44.13
  C 50.96 44.84 53.58 44.92 56.46 45.31
  C 58.22 45.54 63.34 48.54 64.54 49.52
  C 68.80 52.98 68.67 56.63 71.82 60.46
  Q 76.36 65.97 79.41 72.46
  C 81.32 76.53 81.09 79.54 78.82 83.21
  A 0.31 0.31 0.0 0 0 79.28 83.61
  C 80.89 82.21 81.57 77.57 81.54 75.73
  Q 81.53 75.19 82.04 75.37
  C 82.97 75.69 87.05 78.00 87.46 77.99
  Q 87.62 77.98 87.73 77.91
  Q 88.13 77.65 87.72 77.41
  C 84.83 75.71 81.30 75.01 79.78 71.70
  Q 77.35 66.40 74.89 62.93
  Q 73.05 60.34 76.19 59.83
  Q 81.05 59.04 85.21 57.59
  Q 85.49 57.49 85.65 57.32
  Q 85.85 57.10 85.92 56.87
  Q 86.11 56.27 85.55 56.55
  C 81.37 58.60 77.27 57.83 73.54 60.51
  Q 73.09 60.84 72.79 60.37
  C 68.36 53.32 67.91 49.29 59.55 45.49
  A 0.44 0.44 0.0 0 1 59.68 44.65
  Q 65.57 43.88 70.05 40.01
  Q 70.46 39.65 70.94 39.89
  C 76.58 42.72 84.00 44.44 90.09 42.13
  Q 96.80 39.58 103.71 37.72
  C 106.97 36.85 111.21 36.86 114.94 35.68
  Q 115.40 35.53 115.87 35.69
  C 120.43 37.24 125.39 41.39 129.53 42.07
  Q 134.76 42.92 129.65 41.53
  C 125.37 40.36 120.87 37.02 116.53 35.02
  A 0.45 0.45 0.0 0 1 116.39 34.30
  C 119.43 31.17 121.94 27.73 125.31 25.05
  C 130.09 21.24 134.90 16.89 140.26 14.67
  Q 148.94 11.08 158.54 11.78
  Q 158.66 11.79 158.69 11.67
  Q 158.73 11.55 158.77 11.43
  Q 158.82 11.28 158.66 11.26
  Q 145.50 10.07 135.96 15.97
  Q 127.04 21.49 116.84 32.41
  C 114.65 34.76 112.66 35.86 109.61 35.76
  C 100.78 35.45 92.34 42.82 83.34 42.58
  Q 77.01 42.41 71.53 38.77
  A 0.69 0.69 0.0 0 1 71.40 37.74
  C 75.04 33.71 79.59 34.33 81.80 28.65
  Q 81.97 28.22 82.37 28.00
  Q 86.15 25.97 90.48 26.24
  A 0.79 0.77 -55.1 0 0 90.90 26.16
  L 95.76 23.75
  A 0.93 0.93 0.0 0 1 96.70 23.82
  Q 97.59 24.43 98.66 24.61
  Q 98.75 24.63 98.81 24.57
  Q 98.92 24.46 99.05 24.33
  Q 99.18 24.20 99.01 24.13
  L 96.97 23.21
  A 0.30 0.29 -63.0 0 1 96.84 22.79
  Q 99.13 19.05 102.95 17.17
  Q 103.50 16.90 102.88 16.93
  C 100.32 17.07 98.10 20.37 96.62 22.37
  Q 96.30 22.80 95.79 22.95
  Q 93.46 23.63 91.56 25.15
  Q 91.18 25.45 90.71 25.41
  Q 85.79 24.93 81.77 27.56
  Q 81.08 28.02 81.19 27.20
  L 81.49 25.00
  Q 81.68 23.59 80.88 24.49
  Q 80.80 24.59 80.71 25.99
  C 80.55 28.69 81.35 30.13 78.70 31.91
  C 75.49 34.06 73.19 35.39 70.46 38.12
  C 61.20 47.39 50.62 43.33 39.09 41.38
  A 0.79 0.79 0.0 0 1 38.76 39.97
  C 42.09 37.49 46.28 33.51 50.39 32.83
  C 58.64 31.47 64.75 31.97 68.82 23.17
  A 0.07 0.07 0.0 0 0 68.71 23.10
  C 64.69 27.72 63.37 30.77 56.66 31.24
  C 53.22 31.48 50.98 31.87 48.02 32.29
  Q 46.92 32.44 47.59 31.56
  L 55.19 21.53
  A 0.16 0.16 0.0 0 0 55.11 21.28
  Q 54.89 21.20 54.77 21.40
  Q 54.72 21.50 54.67 21.55
  Q 50.86 25.61 47.98 30.36
  C 45.26 34.84 39.89 36.77 36.29 40.81
  Q 32.33 45.23 27.98 49.27
  A 0.25 0.25 0.0 0 1 27.59 48.97
  Z"
/>
<path fill="#0a0201" d="
  M 27.98 49.27
  Q 32.33 45.23 36.29 40.81
  C 39.89 36.77 45.26 34.84 47.98 30.36
  Q 50.86 25.61 54.67 21.55
  Q 54.72 21.50 54.77 21.40
  Q 54.89 21.20 55.11 21.28
  A 0.16 0.16 0.0 0 1 55.19 21.53
  L 47.59 31.56
  Q 46.92 32.44 48.02 32.29
  C 50.98 31.87 53.22 31.48 56.66 31.24
  C 63.37 30.77 64.69 27.72 68.71 23.10
  A 0.07 0.07 0.0 0 1 68.82 23.17
  C 64.75 31.97 58.64 31.47 50.39 32.83
  C 46.28 33.51 42.09 37.49 38.76 39.97
  A 0.79 0.79 0.0 0 0 39.09 41.38
  C 50.62 43.33 61.20 47.39 70.46 38.12
  C 73.19 35.39 75.49 34.06 78.70 31.91
  C 81.35 30.13 80.55 28.69 80.71 25.99
  Q 80.80 24.59 80.88 24.49
  Q 81.68 23.59 81.49 25.00
  L 81.19 27.20
  Q 81.08 28.02 81.77 27.56
  Q 85.79 24.93 90.71 25.41
  Q 91.18 25.45 91.56 25.15
  Q 93.46 23.63 95.79 22.95
  Q 96.30 22.80 96.62 22.37
  C 98.10 20.37 100.32 17.07 102.88 16.93
  Q 103.50 16.90 102.95 17.17
  Q 99.13 19.05 96.84 22.79
  A 0.30 0.29 -63.0 0 0 96.97 23.21
  L 99.01 24.13
  Q 99.18 24.20 99.05 24.33
  Q 98.92 24.46 98.81 24.57
  Q 98.75 24.63 98.66 24.61
  Q 97.59 24.43 96.70 23.82
  A 0.93 0.93 0.0 0 0 95.76 23.75
  L 90.90 26.16
  A 0.79 0.77 -55.1 0 1 90.48 26.24
  Q 86.15 25.97 82.37 28.00
  Q 81.97 28.22 81.80 28.65
  C 79.59 34.33 75.04 33.71 71.40 37.74
  A 0.69 0.69 0.0 0 0 71.53 38.77
  Q 77.01 42.41 83.34 42.58
  C 92.34 42.82 100.78 35.45 109.61 35.76
  C 112.66 35.86 114.65 34.76 116.84 32.41
  Q 127.04 21.49 135.96 15.97
  Q 145.50 10.07 158.66 11.26
  Q 158.82 11.28 158.77 11.43
  Q 158.73 11.55 158.69 11.67
  Q 158.66 11.79 158.54 11.78
  Q 148.94 11.08 140.26 14.67
  C 134.90 16.89 130.09 21.24 125.31 25.05
  C 121.94 27.73 119.43 31.17 116.39 34.30
  A 0.45 0.45 0.0 0 0 116.53 35.02
  C 120.87 37.02 125.37 40.36 129.65 41.53
  Q 134.76 42.92 129.53 42.07
  C 125.39 41.39 120.43 37.24 115.87 35.69
  Q 115.40 35.53 114.94 35.68
  C 111.21 36.86 106.97 36.85 103.71 37.72
  Q 96.80 39.58 90.09 42.13
  C 84.00 44.44 76.58 42.72 70.94 39.89
  Q 70.46 39.65 70.05 40.01
  Q 65.57 43.88 59.68 44.65
  A 0.44 0.44 0.0 0 0 59.55 45.49
  C 67.91 49.29 68.36 53.32 72.79 60.37
  Q 73.09 60.84 73.54 60.51
  C 77.27 57.83 81.37 58.60 85.55 56.55
  Q 86.11 56.27 85.92 56.87
  Q 85.85 57.10 85.65 57.32
  Q 85.49 57.49 85.21 57.59
  Q 81.05 59.04 76.19 59.83
  Q 73.05 60.34 74.89 62.93
  Q 77.35 66.40 79.78 71.70
  C 81.30 75.01 84.83 75.71 87.72 77.41
  Q 88.13 77.65 87.73 77.91
  Q 87.62 77.98 87.46 77.99
  C 87.05 78.00 82.97 75.69 82.04 75.37
  Q 81.53 75.19 81.54 75.73
  C 81.57 77.57 80.89 82.21 79.28 83.61
  A 0.31 0.31 0.0 0 1 78.82 83.21
  C 81.09 79.54 81.32 76.53 79.41 72.46
  Q 76.36 65.97 71.82 60.46
  C 68.67 56.63 68.80 52.98 64.54 49.52
  C 63.34 48.54 58.22 45.54 56.46 45.31
  C 53.58 44.92 50.96 44.84 48.00 44.13
  Q 42.70 42.87 37.23 43.35
  Q 36.63 43.40 36.22 43.86
  L 28.12 52.90
  Q 27.72 53.35 27.30 52.92
  L 25.41 51.03
  Q 24.94 50.57 25.26 49.99
  Q 29.65 41.84 29.40 32.45
  Q 29.38 31.91 28.99 31.54
  L 25.47 28.31
  A 0.90 0.89 -23.4 0 0 24.91 28.09
  C 19.71 27.98 15.67 27.16 12.73 22.61
  A 0.73 0.68 -53.6 0 1 12.66 22.02
  L 12.81 21.56
  A 0.12 0.12 0.0 0 1 13.02 21.53
  C 15.71 25.65 18.77 26.58 23.37 27.48
  A 0.86 0.86 0.0 0 0 24.31 26.27
  Q 21.66 20.64 23.57 14.75
  A 0.35 0.35 0.0 0 1 24.25 14.84
  Q 24.39 17.41 23.57 19.85
  Q 23.41 20.32 23.54 20.81
  C 24.71 25.36 25.44 28.82 29.33 30.62
  Q 29.77 30.82 30.06 30.42
  C 31.38 28.51 32.90 27.45 34.46 25.87
  Q 34.77 25.56 35.18 25.63
  Q 35.54 25.70 35.29 25.97
  L 30.93 30.51
  Q 30.54 30.92 30.60 31.49
  Q 31.65 40.78 27.59 48.97
  A 0.25 0.25 0.0 0 0 27.98 49.27
  Z"
/>
</svg>
