<?xml version="1.0" encoding="UTF-8" standalone="no"?>
<!DOCTYPE svg PUBLIC "-//W3C//DTD SVG 1.1//EN" "http://www.w3.org/Graphics/SVG/1.1/DTD/svg11.dtd">
<svg xmlns="http://www.w3.org/2000/svg" version="1.1" viewBox="0.00 0.00 168.00 92.00">
<g stroke-width="2.00" fill="none" stroke-linecap="butt">
<path stroke="#b9b7b5" vector-effect="non-scaling-stroke" d="
  M 23.08 40.85
  Q 23.31 41.23 23.67 41.30
  Q 23.93 41.34 23.82 41.59
  L 23.57 42.11
  Q 23.54 42.17 23.59 42.21
  L 23.79 42.42
  Q 23.93 42.55 24.01 42.38
  L 25.02 40.34"
/>
<path stroke="#998881" vector-effect="non-scaling-stroke" d="
  M 25.02 40.34
  Q 30.62 37.73 37.20 38.71
  A 0.97 0.97 0.0 0 1 37.96 40.04
  Q 35.33 46.39 29.85 51.12
  Q 29.60 51.33 29.79 51.62
  Q 30.01 51.96 30.33 51.72
  Q 36.77 46.98 40.31 39.77
  Q 40.55 39.28 41.09 39.14
  L 50.93 36.67
  Q 51.36 36.56 51.17 36.97
  Q 47.59 44.59 43.00 51.63
  Q 42.93 51.75 43.03 51.84
  L 43.24 52.02
  Q 43.26 52.04 43.28 52.01
  L 47.77 46.06
  Q 48.09 45.63 48.47 46.01
  C 50.06 47.58 52.03 48.87 53.13 50.56
  C 56.88 56.29 52.68 61.92 47.67 65.43
  Q 45.67 66.84 44.53 71.70
  Q 44.52 71.76 44.54 71.80
  Q 44.58 71.88 44.72 71.99
  Q 44.78 72.04 44.80 71.97
  Q 46.69 66.48 51.53 63.27
  A 0.36 0.36 0.0 0 1 52.09 63.59
  Q 51.93 66.95 52.56 68.70
  Q 53.46 71.22 53.23 68.50
  L 52.71 62.49
  A 1.46 1.45 -27.9 0 1 53.04 61.44
  C 58.07 55.23 54.21 50.27 49.24 45.20
  Q 48.85 44.81 49.03 44.29
  Q 50.76 39.19 54.64 35.45
  Q 55.04 35.06 55.60 35.17
  Q 59.82 36.02 63.09 33.43
  Q 63.54 33.07 63.88 33.53
  C 66.30 36.75 66.24 40.20 68.08 43.39
  Q 70.94 48.36 72.91 53.74
  C 74.47 58.01 80.60 57.33 83.60 61.50
  Q 86.86 66.03 89.08 71.20
  Q 89.27 71.64 89.22 71.16
  C 88.88 68.00 85.95 63.81 83.49 59.93
  Q 83.22 59.51 82.79 59.29
  Q 80.15 57.94 77.40 56.79
  C 72.32 54.67 73.94 52.61 71.73 48.68
  Q 70.88 47.17 69.97 45.61
  A 0.22 0.22 0.0 0 1 70.23 45.29
  L 86.02 50.79"
/>
<path stroke="#8f8f8f" vector-effect="non-scaling-stroke" d="
  M 86.02 50.79
  C 94.45 54.14 100.19 59.92 107.14 64.33
  A 1.44 1.40 -29.9 0 0 108.00 64.55
  L 113.46 64.18
  A 1.36 1.34 -27.5 0 1 114.37 64.46
  Q 118.07 67.33 122.59 68.45
  C 125.04 69.06 127.65 68.35 130.35 68.64
  C 135.87 69.23 139.47 68.23 143.96 65.42
  C 148.58 62.54 155.32 57.84 154.74 51.47
  Q 154.68 50.88 154.41 51.40
  Q 154.11 51.99 154.25 52.64
  Q 154.36 53.13 154.19 53.59
  C 151.64 60.93 145.38 64.49 138.36 67.25
  C 134.80 68.64 130.67 67.86 126.90 67.93
  Q 122.98 68.00 120.70 67.21
  C 116.44 65.73 114.03 62.33 109.12 63.96
  A 2.44 2.43 53.7 0 1 106.93 63.62
  L 98.58 57.58
  A 0.66 0.66 0.0 0 1 98.76 56.42
  C 101.95 55.37 103.18 56.19 106.09 56.31
  C 108.73 56.43 112.58 53.28 114.82 51.84
  Q 114.91 51.79 114.93 51.70
  Q 114.97 51.49 114.80 51.59
  L 107.85 55.30
  Q 107.37 55.55 106.82 55.53
  C 103.99 55.42 100.23 54.52 97.84 56.32
  A 0.66 0.65 -44.5 0 1 97.05 56.32
  Q 92.05 52.53 86.34 50.37"
/>
<path stroke="#998881" vector-effect="non-scaling-stroke" d="
  M 86.34 50.37
  C 80.68 48.72 73.07 47.00 68.70 42.91
  A 1.60 1.59 -73.5 0 1 68.21 42.00
  Q 67.34 36.90 64.29 32.76
  A 1.05 1.02 38.0 0 1 64.15 31.76
  Q 65.93 27.25 63.12 23.33
  A 0.49 0.49 0.0 0 1 63.78 22.63
  C 71.01 27.11 77.98 32.00 86.83 34.18
  C 92.15 35.48 97.46 34.56 102.93 34.09
  Q 103.19 34.07 103.25 33.77
  A 0.33 0.33 0.0 0 0 102.86 33.38
  C 93.29 35.13 87.87 34.45 79.33 30.22
  Q 78.85 29.98 79.30 29.69
  Q 90.16 22.62 103.28 22.51
  Q 103.78 22.50 104.16 22.83
  Q 104.82 23.42 105.74 23.53
  Q 109.00 23.94 112.23 24.40"
/>
<path stroke="#b9b7b5" vector-effect="non-scaling-stroke" d="
  M 112.23 24.40
  Q 116.52 24.66 120.77 24.20
  C 124.88 23.75 128.19 27.55 131.73 28.59
  Q 135.35 29.65 139.20 29.62
  Q 139.57 29.62 139.70 29.38
  A 0.35 0.35 0.0 0 0 139.39 28.87
  C 132.60 28.92 129.15 26.51 123.50 23.36
  Q 123.19 23.19 123.48 22.98
  C 129.75 18.59 136.01 18.53 142.87 16.81
  C 147.36 15.69 151.86 17.08 156.14 18.32
  Q 156.43 18.40 156.49 18.10
  Q 156.53 17.86 156.34 17.81
  C 150.10 16.29 148.12 14.16 141.17 16.31
  Q 137.92 17.32 134.49 17.50
  C 130.24 17.71 126.74 20.28 123.19 22.28
  C 119.63 24.29 115.59 24.08 111.74 23.78"
/>
<path stroke="#998881" vector-effect="non-scaling-stroke" d="
  M 111.74 23.78
  C 108.78 23.61 106.38 22.12 103.81 21.89
  Q 101.12 21.65 98.60 21.88
  A 0.40 0.40 0.0 0 1 98.26 21.22
  Q 106.13 12.07 118.29 11.96
  Q 118.43 11.96 118.44 11.82
  Q 118.44 11.66 118.43 11.53
  Q 118.41 11.30 118.17 11.31
  Q 110.29 11.57 103.55 15.57
  A 0.48 0.47 -80.6 0 1 103.00 14.80
  Q 103.52 14.35 103.19 13.26
  Q 102.53 11.08 101.92 8.89
  Q 101.89 8.80 101.83 8.77
  Q 101.73 8.72 101.57 8.79
  Q 101.43 8.85 101.49 9.00
  Q 103.15 13.05 101.52 17.19
  Q 101.34 17.63 100.92 17.86
  Q 98.53 19.13 97.52 21.59
  Q 97.31 22.10 96.77 22.22
  Q 92.76 23.08 88.77 24.08
  C 85.04 25.02 82.05 27.07 78.67 28.82
  A 2.14 2.12 -41.7 0 1 76.49 28.70
  C 72.91 26.28 69.73 24.43 66.20 21.31
  Q 59.63 15.51 51.05 12.95
  Q 48.97 12.33 41.79 12.57
  Q 41.25 12.59 41.08 13.10
  L 40.23 15.71
  Q 40.01 16.39 40.72 16.29
  Q 51.03 14.80 58.71 19.74
  C 62.41 22.12 66.68 30.64 61.29 33.58
  Q 59.01 34.82 56.19 34.01
  Q 55.74 33.88 55.28 34.03
  Q 49.68 35.90 43.89 37.06
  C 41.37 37.56 39.06 36.53 36.25 37.79
  A 1.61 1.61 0.0 0 1 35.31 37.92
  Q 28.28 36.75 23.08 40.85"
/>
<path stroke="#534037" vector-effect="non-scaling-stroke" d="
  M 111.74 23.78
  Q 112.03 24.03 112.58 24.06
  Q 113.10 24.09 112.62 24.28
  Q 112.46 24.34 112.23 24.40"
/>
<path stroke="#291711" vector-effect="non-scaling-stroke" d="
  M 86.34 50.37
  Q 86.12 50.88 86.02 50.79"
/>
<path stroke="#534037" vector-effect="non-scaling-stroke" d="
  M 25.02 40.34
  Q 23.89 40.88 23.08 40.85"
/>
<path stroke="#8f8f8f" vector-effect="non-scaling-stroke" d="
  M 76.6885 14.6470
  A 0.27 0.27 0.0 0 0 76.6878 14.2652
  L 76.5603 14.1381
  A 0.27 0.27 0.0 0 0 76.1785 14.1388
  L 68.3715 21.9730
  A 0.27 0.27 0.0 0 0 68.3722 22.3548
  L 68.4997 22.4819
  A 0.27 0.27 0.0 0 0 68.8815 22.4812
  L 76.6885 14.6470"
/>
</g>
<path fill="#ffffff" d="
  M 0.00 0.00
  L 168.00 0.00
  L 168.00 92.00
  L 0.00 92.00
  L 0.00 0.00
  Z
  M 23.08 40.85
  Q 23.31 41.23 23.67 41.30
  Q 23.93 41.34 23.82 41.59
  L 23.57 42.11
  Q 23.54 42.17 23.59 42.21
  L 23.79 42.42
  Q 23.93 42.55 24.01 42.38
  L 25.02 40.34
  Q 30.62 37.73 37.20 38.71
  A 0.97 0.97 0.0 0 1 37.96 40.04
  Q 35.33 46.39 29.85 51.12
  Q 29.60 51.33 29.79 51.62
  Q 30.01 51.96 30.33 51.72
  Q 36.77 46.98 40.31 39.77
  Q 40.55 39.28 41.09 39.14
  L 50.93 36.67
  Q 51.36 36.56 51.17 36.97
  Q 47.59 44.59 43.00 51.63
  Q 42.93 51.75 43.03 51.84
  L 43.24 52.02
  Q 43.26 52.04 43.28 52.01
  L 47.77 46.06
  Q 48.09 45.63 48.47 46.01
  C 50.06 47.58 52.03 48.87 53.13 50.56
  C 56.88 56.29 52.68 61.92 47.67 65.43
  Q 45.67 66.84 44.53 71.70
  Q 44.52 71.76 44.54 71.80
  Q 44.58 71.88 44.72 71.99
  Q 44.78 72.04 44.80 71.97
  Q 46.69 66.48 51.53 63.27
  A 0.36 0.36 0.0 0 1 52.09 63.59
  Q 51.93 66.95 52.56 68.70
  Q 53.46 71.22 53.23 68.50
  L 52.71 62.49
  A 1.46 1.45 -27.9 0 1 53.04 61.44
  C 58.07 55.23 54.21 50.27 49.24 45.20
  Q 48.85 44.81 49.03 44.29
  Q 50.76 39.19 54.64 35.45
  Q 55.04 35.06 55.60 35.17
  Q 59.82 36.02 63.09 33.43
  Q 63.54 33.07 63.88 33.53
  C 66.30 36.75 66.24 40.20 68.08 43.39
  Q 70.94 48.36 72.91 53.74
  C 74.47 58.01 80.60 57.33 83.60 61.50
  Q 86.86 66.03 89.08 71.20
  Q 89.27 71.64 89.22 71.16
  C 88.88 68.00 85.95 63.81 83.49 59.93
  Q 83.22 59.51 82.79 59.29
  Q 80.15 57.94 77.40 56.79
  C 72.32 54.67 73.94 52.61 71.73 48.68
  Q 70.88 47.17 69.97 45.61
  A 0.22 0.22 0.0 0 1 70.23 45.29
  L 86.02 50.79
  C 94.45 54.14 100.19 59.92 107.14 64.33
  A 1.44 1.40 -29.9 0 0 108.00 64.55
  L 113.46 64.18
  A 1.36 1.34 -27.5 0 1 114.37 64.46
  Q 118.07 67.33 122.59 68.45
  C 125.04 69.06 127.65 68.35 130.35 68.64
  C 135.87 69.23 139.47 68.23 143.96 65.42
  C 148.58 62.54 155.32 57.84 154.74 51.47
  Q 154.68 50.88 154.41 51.40
  Q 154.11 51.99 154.25 52.64
  Q 154.36 53.13 154.19 53.59
  C 151.64 60.93 145.38 64.49 138.36 67.25
  C 134.80 68.64 130.67 67.86 126.90 67.93
  Q 122.98 68.00 120.70 67.21
  C 116.44 65.73 114.03 62.33 109.12 63.96
  A 2.44 2.43 53.7 0 1 106.93 63.62
  L 98.58 57.58
  A 0.66 0.66 0.0 0 1 98.76 56.42
  C 101.95 55.37 103.18 56.19 106.09 56.31
  C 108.73 56.43 112.58 53.28 114.82 51.84
  Q 114.91 51.79 114.93 51.70
  Q 114.97 51.49 114.80 51.59
  L 107.85 55.30
  Q 107.37 55.55 106.82 55.53
  C 103.99 55.42 100.23 54.52 97.84 56.32
  A 0.66 0.65 -44.5 0 1 97.05 56.32
  Q 92.05 52.53 86.34 50.37
  C 80.68 48.72 73.07 47.00 68.70 42.91
  A 1.60 1.59 -73.5 0 1 68.21 42.00
  Q 67.34 36.90 64.29 32.76
  A 1.05 1.02 38.0 0 1 64.15 31.76
  Q 65.93 27.25 63.12 23.33
  A 0.49 0.49 0.0 0 1 63.78 22.63
  C 71.01 27.11 77.98 32.00 86.83 34.18
  C 92.15 35.48 97.46 34.56 102.93 34.09
  Q 103.19 34.07 103.25 33.77
  A 0.33 0.33 0.0 0 0 102.86 33.38
  C 93.29 35.13 87.87 34.45 79.33 30.22
  Q 78.85 29.98 79.30 29.69
  Q 90.16 22.62 103.28 22.51
  Q 103.78 22.50 104.16 22.83
  Q 104.82 23.42 105.74 23.53
  Q 109.00 23.94 112.23 24.40
  Q 116.52 24.66 120.77 24.20
  C 124.88 23.75 128.19 27.55 131.73 28.59
  Q 135.35 29.65 139.20 29.62
  Q 139.57 29.62 139.70 29.38
  A 0.35 0.35 0.0 0 0 139.39 28.87
  C 132.60 28.92 129.15 26.51 123.50 23.36
  Q 123.19 23.19 123.48 22.98
  C 129.75 18.59 136.01 18.53 142.87 16.81
  C 147.36 15.69 151.86 17.08 156.14 18.32
  Q 156.43 18.40 156.49 18.10
  Q 156.53 17.86 156.34 17.81
  C 150.10 16.29 148.12 14.16 141.17 16.31
  Q 137.92 17.32 134.49 17.50
  C 130.24 17.71 126.74 20.28 123.19 22.28
  C 119.63 24.29 115.59 24.08 111.74 23.78
  C 108.78 23.61 106.38 22.12 103.81 21.89
  Q 101.12 21.65 98.60 21.88
  A 0.40 0.40 0.0 0 1 98.26 21.22
  Q 106.13 12.07 118.29 11.96
  Q 118.43 11.96 118.44 11.82
  Q 118.44 11.66 118.43 11.53
  Q 118.41 11.30 118.17 11.31
  Q 110.29 11.57 103.55 15.57
  A 0.48 0.47 -80.6 0 1 103.00 14.80
  Q 103.52 14.35 103.19 13.26
  Q 102.53 11.08 101.92 8.89
  Q 101.89 8.80 101.83 8.77
  Q 101.73 8.72 101.57 8.79
  Q 101.43 8.85 101.49 9.00
  Q 103.15 13.05 101.52 17.19
  Q 101.34 17.63 100.92 17.86
  Q 98.53 19.13 97.52 21.59
  Q 97.31 22.10 96.77 22.22
  Q 92.76 23.08 88.77 24.08
  C 85.04 25.02 82.05 27.07 78.67 28.82
  A 2.14 2.12 -41.7 0 1 76.49 28.70
  C 72.91 26.28 69.73 24.43 66.20 21.31
  Q 59.63 15.51 51.05 12.95
  Q 48.97 12.33 41.79 12.57
  Q 41.25 12.59 41.08 13.10
  L 40.23 15.71
  Q 40.01 16.39 40.72 16.29
  Q 51.03 14.80 58.71 19.74
  C 62.41 22.12 66.68 30.64 61.29 33.58
  Q 59.01 34.82 56.19 34.01
  Q 55.74 33.88 55.28 34.03
  Q 49.68 35.90 43.89 37.06
  C 41.37 37.56 39.06 36.53 36.25 37.79
  A 1.61 1.61 0.0 0 1 35.31 37.92
  Q 28.28 36.75 23.08 40.85
  Z
  M 76.6885 14.6470
  A 0.27 0.27 0.0 0 0 76.6878 14.2652
  L 76.5603 14.1381
  A 0.27 0.27 0.0 0 0 76.1785 14.1388
  L 68.3715 21.9730
  A 0.27 0.27 0.0 0 0 68.3722 22.3548
  L 68.4997 22.4819
  A 0.27 0.27 0.0 0 0 68.8815 22.4812
  L 76.6885 14.6470
  Z"
/>
<path fill="#331003" d="
  M 111.74 23.78
  Q 112.03 24.03 112.58 24.06
  Q 113.10 24.09 112.62 24.28
  Q 112.46 24.34 112.23 24.40
  Q 109.00 23.94 105.74 23.53
  Q 104.82 23.42 104.16 22.83
  Q 103.78 22.50 103.28 22.51
  Q 90.16 22.62 79.30 29.69
  Q 78.85 29.98 79.33 30.22
  C 87.87 34.45 93.29 35.13 102.86 33.38
  A 0.33 0.33 0.0 0 1 103.25 33.77
  Q 103.19 34.07 102.93 34.09
  C 97.46 34.56 92.15 35.48 86.83 34.18
  C 77.98 32.00 71.01 27.11 63.78 22.63
  A 0.49 0.49 0.0 0 0 63.12 23.33
  Q 65.93 27.25 64.15 31.76
  A 1.05 1.02 38.0 0 0 64.29 32.76
  Q 67.34 36.90 68.21 42.00
  A 1.60 1.59 -73.5 0 0 68.70 42.91
  C 73.07 47.00 80.68 48.72 86.34 50.37
  Q 86.12 50.88 86.02 50.79
  L 70.23 45.29
  A 0.22 0.22 0.0 0 0 69.97 45.61
  Q 70.88 47.17 71.73 48.68
  C 73.94 52.61 72.32 54.67 77.40 56.79
  Q 80.15 57.94 82.79 59.29
  Q 83.22 59.51 83.49 59.93
  C 85.95 63.81 88.88 68.00 89.22 71.16
  Q 89.27 71.64 89.08 71.20
  Q 86.86 66.03 83.60 61.50
  C 80.60 57.33 74.47 58.01 72.91 53.74
  Q 70.94 48.36 68.08 43.39
  C 66.24 40.20 66.30 36.75 63.88 33.53
  Q 63.54 33.07 63.09 33.43
  Q 59.82 36.02 55.60 35.17
  Q 55.04 35.06 54.64 35.45
  Q 50.76 39.19 49.03 44.29
  Q 48.85 44.81 49.24 45.20
  C 54.21 50.27 58.07 55.23 53.04 61.44
  A 1.46 1.45 -27.9 0 0 52.71 62.49
  L 53.23 68.50
  Q 53.46 71.22 52.56 68.70
  Q 51.93 66.95 52.09 63.59
  A 0.36 0.36 0.0 0 0 51.53 63.27
  Q 46.69 66.48 44.80 71.97
  Q 44.78 72.04 44.72 71.99
  Q 44.58 71.88 44.54 71.80
  Q 44.52 71.76 44.53 71.70
  Q 45.67 66.84 47.67 65.43
  C 52.68 61.92 56.88 56.29 53.13 50.56
  C 52.03 48.87 50.06 47.58 48.47 46.01
  Q 48.09 45.63 47.77 46.06
  L 43.28 52.01
  Q 43.26 52.04 43.24 52.02
  L 43.03 51.84
  Q 42.93 51.75 43.00 51.63
  Q 47.59 44.59 51.17 36.97
  Q 51.36 36.56 50.93 36.67
  L 41.09 39.14
  Q 40.55 39.28 40.31 39.77
  Q 36.77 46.98 30.33 51.72
  Q 30.01 51.96 29.79 51.62
  Q 29.60 51.33 29.85 51.12
  Q 35.33 46.39 37.96 40.04
  A 0.97 0.97 0.0 0 0 37.20 38.71
  Q 30.62 37.73 25.02 40.34
  Q 23.89 40.88 23.08 40.85
  Q 28.28 36.75 35.31 37.92
  A 1.61 1.61 0.0 0 0 36.25 37.79
  C 39.06 36.53 41.37 37.56 43.89 37.06
  Q 49.68 35.90 55.28 34.03
  Q 55.74 33.88 56.19 34.01
  Q 59.01 34.82 61.29 33.58
  C 66.68 30.64 62.41 22.12 58.71 19.74
  Q 51.03 14.80 40.72 16.29
  Q 40.01 16.39 40.23 15.71
  L 41.08 13.10
  Q 41.25 12.59 41.79 12.57
  Q 48.97 12.33 51.05 12.95
  Q 59.63 15.51 66.20 21.31
  C 69.73 24.43 72.91 26.28 76.49 28.70
  A 2.14 2.12 -41.7 0 0 78.67 28.82
  C 82.05 27.07 85.04 25.02 88.77 24.08
  Q 92.76 23.08 96.77 22.22
  Q 97.31 22.10 97.52 21.59
  Q 98.53 19.13 100.92 17.86
  Q 101.34 17.63 101.52 17.19
  Q 103.15 13.05 101.49 9.00
  Q 101.43 8.85 101.57 8.79
  Q 101.73 8.72 101.83 8.77
  Q 101.89 8.80 101.92 8.89
  Q 102.53 11.08 103.19 13.26
  Q 103.52 14.35 103.00 14.80
  A 0.48 0.47 -80.6 0 0 103.55 15.57
  Q 110.29 11.57 118.17 11.31
  Q 118.41 11.30 118.43 11.53
  Q 118.44 11.66 118.44 11.82
  Q 118.43 11.96 118.29 11.96
  Q 106.13 12.07 98.26 21.22
  A 0.40 0.40 0.0 0 0 98.60 21.88
  Q 101.12 21.65 103.81 21.89
  C 106.38 22.12 108.78 23.61 111.74 23.78
  Z"
/>
<rect fill="#1e1e1f" x="-0.36" y="-5.80" transform="translate(72.53,18.31) rotate(44.9)" width="0.72" height="11.60" rx="0.27"/>
<path fill="#726f6b" d="
  M 112.23 24.40
  Q 112.46 24.34 112.62 24.28
  Q 113.10 24.09 112.58 24.06
  Q 112.03 24.03 111.74 23.78
  C 115.59 24.08 119.63 24.29 123.19 22.28
  C 126.74 20.28 130.24 17.71 134.49 17.50
  Q 137.92 17.32 141.17 16.31
  C 148.12 14.16 150.10 16.29 156.34 17.81
  Q 156.53 17.86 156.49 18.10
  Q 156.43 18.40 156.14 18.32
  C 151.86 17.08 147.36 15.69 142.87 16.81
  C 136.01 18.53 129.75 18.59 123.48 22.98
  Q 123.19 23.19 123.50 23.36
  C 129.15 26.51 132.60 28.92 139.39 28.87
  A 0.35 0.35 0.0 0 1 139.70 29.38
  Q 139.57 29.62 139.20 29.62
  Q 135.35 29.65 131.73 28.59
  C 128.19 27.55 124.88 23.75 120.77 24.20
  Q 116.52 24.66 112.23 24.40
  Z"
/>
<path fill="#726f6b" d="
  M 25.02 40.34
  L 24.01 42.38
  Q 23.93 42.55 23.79 42.42
  L 23.59 42.21
  Q 23.54 42.17 23.57 42.11
  L 23.82 41.59
  Q 23.93 41.34 23.67 41.30
  Q 23.31 41.23 23.08 40.85
  Q 23.89 40.88 25.02 40.34
  Z"
/>
<path fill="#1e1e1f" d="
  M 86.34 50.37
  Q 92.05 52.53 97.05 56.32
  A 0.66 0.65 -44.5 0 0 97.84 56.32
  C 100.23 54.52 103.99 55.42 106.82 55.53
  Q 107.37 55.55 107.85 55.30
  L 114.80 51.59
  Q 114.97 51.49 114.93 51.70
  Q 114.91 51.79 114.82 51.84
  C 112.58 53.28 108.73 56.43 106.09 56.31
  C 103.18 56.19 101.95 55.37 98.76 56.42
  A 0.66 0.66 0.0 0 0 98.58 57.58
  L 106.93 63.62
  A 2.44 2.43 53.7 0 0 109.12 63.96
  C 114.03 62.33 116.44 65.73 120.70 67.21
  Q 122.98 68.00 126.90 67.93
  C 130.67 67.86 134.80 68.64 138.36 67.25
  C 145.38 64.49 151.64 60.93 154.19 53.59
  Q 154.36 53.13 154.25 52.64
  Q 154.11 51.99 154.41 51.40
  Q 154.68 50.88 154.74 51.47
  C 155.32 57.84 148.58 62.54 143.96 65.42
  C 139.47 68.23 135.87 69.23 130.35 68.64
  C 127.65 68.35 125.04 69.06 122.59 68.45
  Q 118.07 67.33 114.37 64.46
  A 1.36 1.34 -27.5 0 0 113.46 64.18
  L 108.00 64.55
  A 1.44 1.40 -29.9 0 1 107.14 64.33
  C 100.19 59.92 94.45 54.14 86.02 50.79
  Q 86.12 50.88 86.34 50.37
  Z"
/>
</svg>
